<?xml version="1.0" encoding="UTF-8"?>
<svg width="1200" height="800" viewBox="0 0 1200 800" xmlns="http://www.w3.org/2000/svg">
  <!-- Background -->
  <rect width="1200" height="800" fill="#f8f9fa" stroke="none"/>
  
  <!-- Header Section -->
  <rect x="0" y="0" width="1200" height="80" fill="#ffffff" stroke="#e9ecef" stroke-width="1"/>
  <text x="20" y="30" font-family="Arial, sans-serif" font-size="24" font-weight="bold" fill="#212529">🏭 MACHO-GPT Warehouse 3D Visualization</text>
  <text x="20" y="55" font-family="Arial, sans-serif" font-size="14" fill="#6c757d">HVDC PROJECT | Samsung C&T | ADNOC·DSV Partnership</text>
  
  <!-- Status Bar -->
  <rect x="800" y="20" width="120" height="40" fill="#e3f2fd" stroke="#2196f3" stroke-width="1" rx="4"/>
  <text x="810" y="35" font-family="Arial, sans-serif" font-size="12" fill="#1976d2">Mode: LATTICE</text>
  <text x="810" y="50" font-family="Arial, sans-serif" font-size="12" fill="#1976d2">Confidence: 95%</text>
  
  <!-- Main Content Area -->
  <rect x="0" y="80" width="1200" height="720" fill="#ffffff" stroke="none"/>
  
  <!-- Left Sidebar - Controls -->
  <rect x="0" y="80" width="300" height="720" fill="#f8f9fa" stroke="#e9ecef" stroke-width="1"/>
  
  <!-- File Upload Section -->
  <rect x="20" y="100" width="260" height="120" fill="#ffffff" stroke="#dee2e6" stroke-width="1" rx="6"/>
  <text x="30" y="120" font-family="Arial, sans-serif" font-size="16" font-weight="bold" fill="#495057">📁 Data Import</text>
  
  <!-- Upload Button -->
  <rect x="30" y="130" width="240" height="40" fill="#007bff" stroke="none" rx="4"/>
  <text x="140" y="155" font-family="Arial, sans-serif" font-size="14" fill="#ffffff" text-anchor="middle">Choose CSV/Excel File</text>
  
  <!-- File Info -->
  <text x="30" y="180" font-family="Arial, sans-serif" font-size="12" fill="#6c757d">Selected: zoneAB_layout.csv</text>
  <text x="30" y="195" font-family="Arial, sans-serif" font-size="12" fill="#6c757d">Records: 39 items</text>
  <text x="30" y="210" font-family="Arial, sans-serif" font-size="12" fill="#6c757d">Size: 2.4 MB</text>
  
  <!-- 3D Model Settings -->
  <rect x="20" y="240" width="260" height="180" fill="#ffffff" stroke="#dee2e6" stroke-width="1" rx="6"/>
  <text x="30" y="260" font-family="Arial, sans-serif" font-size="16" font-weight="bold" fill="#495057">⚙️ 3D Model Settings</text>
  
  <!-- Warehouse Dimensions -->
  <text x="30" y="285" font-family="Arial, sans-serif" font-size="14" font-weight="bold" fill="#495057">Warehouse Dimensions:</text>
  <text x="30" y="305" font-family="Arial, sans-serif" font-size="12" fill="#6c757d">Length: 35m</text>
  <text x="30" y="320" font-family="Arial, sans-serif" font-size="12" fill="#6c757d">Width: 15m</text>
  <text x="30" y="335" font-family="Arial, sans-serif" font-size="12" fill="#6c757d">Height: 10m</text>
  
  <!-- Material Settings -->
  <text x="30" y="360" font-family="Arial, sans-serif" font-size="14" font-weight="bold" fill="#495057">Material Categories:</text>
  <circle cx="40" cy="380" r="6" fill="#2196f3" stroke="none"/>
  <text x="55" y="385" font-family="Arial, sans-serif" font-size="12" fill="#6c757d">Light (≤1000kg) - Plastic</text>
  <circle cx="40" cy="395" r="6" fill="#8d6e63" stroke="none"/>
  <text x="55" y="400" font-family="Arial, sans-serif" font-size="12" fill="#6c757d">Medium (1001-2000kg) - Wood</text>
  <circle cx="40" cy="410" r="6" fill="#9e9e9e" stroke="none"/>
  <text x="55" y="415" font-family="Arial, sans-serif" font-size="12" fill="#6c757d">Heavy (>2000kg) - Steel</text>
  
  <!-- Export Options -->
  <rect x="20" y="440" width="260" height="120" fill="#ffffff" stroke="#dee2e6" stroke-width="1" rx="6"/>
  <text x="30" y="460" font-family="Arial, sans-serif" font-size="16" font-weight="bold" fill="#495057">📤 Export Options</text>
  
  <!-- Export Buttons -->
  <rect x="30" y="470" width="240" height="30" fill="#28a745" stroke="none" rx="4"/>
  <text x="150" y="490" font-family="Arial, sans-serif" font-size="12" fill="#ffffff" text-anchor="middle">Generate STL File</text>
  
  <rect x="30" y="510" width="240" height="30" fill="#17a2b8" stroke="none" rx="4"/>
  <text x="150" y="530" font-family="Arial, sans-serif" font-size="12" fill="#ffffff" text-anchor="middle">Generate glTF File</text>
  
  <rect x="30" y="550" width="240" height="30" fill="#ffc107" stroke="none" rx="4"/>
  <text x="150" y="570" font-family="Arial, sans-serif" font-size="12" fill="#212529" text-anchor="middle">Export to Sketchfab</text>
  
  <!-- KPI Dashboard -->
  <rect x="20" y="580" width="260" height="200" fill="#ffffff" stroke="#dee2e6" stroke-width="1" rx="6"/>
  <text x="30" y="600" font-family="Arial, sans-serif" font-size="16" font-weight="bold" fill="#495057">📊 KPI Dashboard</text>
  
  <!-- KPI Cards -->
  <rect x="30" y="610" width="110" height="60" fill="#e8f5e8" stroke="#28a745" stroke-width="1" rx="4"/>
  <text x="85" y="625" font-family="Arial, sans-serif" font-size="20" font-weight="bold" fill="#28a745" text-anchor="middle">39</text>
  <text x="85" y="640" font-family="Arial, sans-serif" font-size="10" fill="#28a745" text-anchor="middle">Total Items</text>
  <text x="85" y="655" font-family="Arial, sans-serif" font-size="10" fill="#28a745" text-anchor="middle">Zone AB</text>
  
  <rect x="150" y="610" width="110" height="60" fill="#fff3cd" stroke="#ffc107" stroke-width="1" rx="4"/>
  <text x="205" y="625" font-family="Arial, sans-serif" font-size="20" font-weight="bold" fill="#856404" text-anchor="middle">85%</text>
  <text x="205" y="640" font-family="Arial, sans-serif" font-size="10" fill="#856404" text-anchor="middle">Utilization</text>
  <text x="205" y="655" font-family="Arial, sans-serif" font-size="10" fill="#856404" text-anchor="middle">Area</text>
  
  <rect x="30" y="680" width="110" height="60" fill="#d1ecf1" stroke="#17a2b8" stroke-width="1" rx="4"/>
  <text x="85" y="695" font-family="Arial, sans-serif" font-size="20" font-weight="bold" fill="#0c5460" text-anchor="middle">22</text>
  <text x="85" y="710" font-family="Arial, sans-serif" font-size="10" fill="#0c5460" text-anchor="middle">Placed</text>
  <text x="85" y="725" font-family="Arial, sans-serif" font-size="10" fill="#0c5460" text-anchor="middle">Items</text>
  
  <rect x="150" y="680" width="110" height="60" fill="#f8d7da" stroke="#dc3545" stroke-width="1" rx="4"/>
  <text x="205" y="695" font-family="Arial, sans-serif" font-size="20" font-weight="bold" fill="#721c24" text-anchor="middle">17</text>
  <text x="205" y="710" font-family="Arial, sans-serif" font-size="10" fill="#721c24" text-anchor="middle">Excluded</text>
  <text x="205" y="725" font-family="Arial, sans-serif" font-size="10" fill="#721c24" text-anchor="middle">Items</text>
  
  <!-- Main 3D View Area -->
  <rect x="320" y="100" width="860" height="500" fill="#ffffff" stroke="#dee2e6" stroke-width="2" rx="8"/>
  <text x="340" y="125" font-family="Arial, sans-serif" font-size="18" font-weight="bold" fill="#495057">🗺️ 3D Warehouse Layout</text>
  
  <!-- 3D Viewport Placeholder -->
  <rect x="340" y="140" width="820" height="440" fill="#f8f9fa" stroke="#ced4da" stroke-width="1" rx="4"/>
  
  <!-- 3D View Controls -->
  <rect x="340" y="140" width="820" height="30" fill="#e9ecef" stroke="none"/>
  <text x="350" y="160" font-family="Arial, sans-serif" font-size="12" fill="#495057">View Controls:</text>
  
  <!-- Control Buttons -->
  <rect x="450" y="145" width="60" height="20" fill="#6c757d" stroke="none" rx="3"/>
  <text x="480" y="158" font-family="Arial, sans-serif" font-size="10" fill="#ffffff" text-anchor="middle">Top</text>
  
  <rect x="520" y="145" width="60" height="20" fill="#6c757d" stroke="none" rx="3"/>
  <text x="550" y="158" font-family="Arial, sans-serif" font-size="10" fill="#ffffff" text-anchor="middle">Front</text>
  
  <rect x="590" y="145" width="60" height="20" fill="#6c757d" stroke="none" rx="3"/>
  <text x="620" y="158" font-family="Arial, sans-serif" font-size="10" fill="#ffffff" text-anchor="middle">Side</text>
  
  <rect x="660" y="145" width="60" height="20" fill="#6c757d" stroke="none" rx="3"/>
  <text x="690" y="158" font-family="Arial, sans-serif" font-size="10" fill="#ffffff" text-anchor="middle">3D</text>
  
  <rect x="730" y="145" width="60" height="20" fill="#6c757d" stroke="none" rx="3"/>
  <text x="760" y="158" font-family="Arial, sans-serif" font-size="10" fill="#ffffff" text-anchor="middle">Reset</text>
  
  <!-- 3D Scene Placeholder -->
  <rect x="340" y="180" width="820" height="380" fill="#ffffff" stroke="#dee2e6" stroke-width="1"/>
  
  <!-- Warehouse Floor Grid -->
  <rect x="360" y="200" width="780" height="340" fill="none" stroke="#e9ecef" stroke-width="1"/>
  
  <!-- Grid Lines -->
  <line x1="360" y1="200" x2="1140" y2="200" stroke="#dee2e6" stroke-width="1"/>
  <line x1="360" y1="240" x2="1140" y2="240" stroke="#dee2e6" stroke-width="1"/>
  <line x1="360" y1="280" x2="1140" y2="280" stroke="#dee2e6" stroke-width="1"/>
  <line x1="360" y1="320" x2="1140" y2="320" stroke="#dee2e6" stroke-width="1"/>
  <line x1="360" y1="360" x2="1140" y2="360" stroke="#dee2e6" stroke-width="1"/>
  <line x1="360" y1="400" x2="1140" y2="400" stroke="#dee2e6" stroke-width="1"/>
  <line x1="360" y1="440" x2="1140" y2="440" stroke="#dee2e6" stroke-width="1"/>
  <line x1="360" y1="480" x2="1140" y2="480" stroke="#dee2e6" stroke-width="1"/>
  <line x1="360" y1="520" x2="1140" y2="520" stroke="#dee2e6" stroke-width="1"/>
  
  <line x1="360" y1="200" x2="360" y2="540" stroke="#dee2e6" stroke-width="1"/>
  <line x1="400" y1="200" x2="400" y2="540" stroke="#dee2e6" stroke-width="1"/>
  <line x1="440" y1="200" x2="440" y2="540" stroke="#dee2e6" stroke-width="1"/>
  <line x1="480" y1="200" x2="480" y2="540" stroke="#dee2e6" stroke-width="1"/>
  <line x1="520" y1="200" x2="520" y2="540" stroke="#dee2e6" stroke-width="1"/>
  <line x1="560" y1="200" x2="560" y2="540" stroke="#dee2e6" stroke-width="1"/>
  <line x1="600" y1="200" x2="600" y2="540" stroke="#dee2e6" stroke-width="1"/>
  <line x1="640" y1="200" x2="640" y2="540" stroke="#dee2e6" stroke-width="1"/>
  <line x1="680" y1="200" x2="680" y2="540" stroke="#dee2e6" stroke-width="1"/>
  <line x1="720" y1="200" x2="720" y2="540" stroke="#dee2e6" stroke-width="1"/>
  <line x1="760" y1="200" x2="760" y2="540" stroke="#dee2e6" stroke-width="1"/>
  <line x1="800" y1="200" x2="800" y2="540" stroke="#dee2e6" stroke-width="1"/>
  <line x1="840" y1="200" x2="840" y2="540" stroke="#dee2e6" stroke-width="1"/>
  <line x1="880" y1="200" x2="880" y2="540" stroke="#dee2e6" stroke-width="1"/>
  <line x1="920" y1="200" x2="920" y2="540" stroke="#dee2e6" stroke-width="1"/>
  <line x1="960" y1="200" x2="960" y2="540" stroke="#dee2e6" stroke-width="1"/>
  <line x1="1000" y1="200" x2="1000" y2="540" stroke="#dee2e6" stroke-width="1"/>
  <line x1="1040" y1="200" x2="1040" y2="540" stroke="#dee2e6" stroke-width="1"/>
  <line x1="1080" y1="200" x2="1080" y2="540" stroke="#dee2e6" stroke-width="1"/>
  <line x1="1120" y1="200" x2="1120" y2="540" stroke="#dee2e6" stroke-width="1"/>
  <line x1="1140" y1="200" x2="1140" y2="540" stroke="#dee2e6" stroke-width="1"/>
  
  <!-- Sample Crate Boxes (Wireframe) -->
  <!-- Row 1 -->
  <rect x="380" y="220" width="40" height="20" fill="none" stroke="#2196f3" stroke-width="2"/>
  <rect x="440" y="220" width="40" height="20" fill="none" stroke="#8d6e63" stroke-width="2"/>
  <rect x="500" y="220" width="40" height="20" fill="none" stroke="#9e9e9e" stroke-width="2"/>
  <rect x="560" y="220" width="40" height="20" fill="none" stroke="#2196f3" stroke-width="2"/>
  <rect x="620" y="220" width="40" height="20" fill="none" stroke="#8d6e63" stroke-width="2"/>
  
  <!-- Row 2 -->
  <rect x="380" y="260" width="40" height="20" fill="none" stroke="#9e9e9e" stroke-width="2"/>
  <rect x="440" y="260" width="40" height="20" fill="none" stroke="#2196f3" stroke-width="2"/>
  <rect x="500" y="260" width="40" height="20" fill="none" stroke="#8d6e63" stroke-width="2"/>
  <rect x="560" y="260" width="40" height="20" fill="none" stroke="#9e9e9e" stroke-width="2"/>
  <rect x="620" y="260" width="40" height="20" fill="none" stroke="#2196f3" stroke-width="2"/>
  
  <!-- Row 3 -->
  <rect x="380" y="300" width="40" height="20" fill="none" stroke="#8d6e63" stroke-width="2"/>
  <rect x="440" y="300" width="40" height="20" fill="none" stroke="#9e9e9e" stroke-width="2"/>
  <rect x="500" y="300" width="40" height="20" fill="none" stroke="#2196f3" stroke-width="2"/>
  <rect x="560" y="300" width="40" height="20" fill="none" stroke="#8d6e63" stroke-width="2"/>
  <rect x="620" y="300" width="40" height="20" fill="none" stroke="#9e9e9e" stroke-width="2"/>
  
  <!-- Row 4 -->
  <rect x="380" y="340" width="40" height="20" fill="none" stroke="#2196f3" stroke-width="2"/>
  <rect x="440" y="340" width="40" height="20" fill="none" stroke="#8d6e63" stroke-width="2"/>
  <rect x="500" y="340" width="40" height="20" fill="none" stroke="#9e9e9e" stroke-width="2"/>
  <rect x="560" y="340" width="40" height="20" fill="none" stroke="#2196f3" stroke-width="2"/>
  <rect x="620" y="340" width="40" height="20" fill="none" stroke="#8d6e63" stroke-width="2"/>
  
  <!-- Row 5 -->
  <rect x="380" y="380" width="40" height="20" fill="none" stroke="#9e9e9e" stroke-width="2"/>
  <rect x="440" y="380" width="40" height="20" fill="none" stroke="#2196f3" stroke-width="2"/>
  <rect x="500" y="380" width="40" height="20" fill="none" stroke="#8d6e63" stroke-width="2"/>
  <rect x="560" y="380" width="40" height="20" fill="none" stroke="#9e9e9e" stroke-width="2"/>
  <rect x="620" y="380" width="40" height="20" fill="none" stroke="#2196f3" stroke-width="2"/>
  
  <!-- Aisle -->
  <rect x="680" y="200" width="40" height="340" fill="#fff3cd" stroke="#ffc107" stroke-width="2"/>
  <text x="700" y="380" font-family="Arial, sans-serif" font-size="12" fill="#856404" text-anchor="middle" transform="rotate(-90, 700, 380)">AISLE</text>
  
  <!-- Right Side Crates -->
  <rect x="740" y="220" width="40" height="20" fill="none" stroke="#8d6e63" stroke-width="2"/>
  <rect x="800" y="220" width="40" height="20" fill="none" stroke="#9e9e9e" stroke-width="2"/>
  <rect x="860" y="220" width="40" height="20" fill="none" stroke="#2196f3" stroke-width="2"/>
  
  <rect x="740" y="260" width="40" height="20" fill="none" stroke="#2196f3" stroke-width="2"/>
  <rect x="800" y="260" width="40" height="20" fill="none" stroke="#8d6e63" stroke-width="2"/>
  <rect x="860" y="260" width="40" height="20" fill="none" stroke="#9e9e9e" stroke-width="2"/>
  
  <rect x="740" y="300" width="40" height="20" fill="none" stroke="#9e9e9e" stroke-width="2"/>
  <rect x="800" y="300" width="40" height="20" fill="none" stroke="#2196f3" stroke-width="2"/>
  <rect x="860" y="300" width="40" height="20" fill="none" stroke="#8d6e63" stroke-width="2"/>
  
  <!-- Scale Indicator -->
  <line x1="360" y1="560" x2="460" y2="560" stroke="#495057" stroke-width="2"/>
  <text x="410" y="575" font-family="Arial, sans-serif" font-size="10" fill="#495057" text-anchor="middle">10m</text>
  
  <!-- Bottom Panel - Details -->
  <rect x="320" y="620" width="860" height="180" fill="#ffffff" stroke="#dee2e6" stroke-width="1" rx="6"/>
  <text x="340" y="640" font-family="Arial, sans-serif" font-size="16" font-weight="bold" fill="#495057">📋 Item Details</text>
  
  <!-- Details Table -->
  <rect x="340" y="650" width="840" height="140" fill="#f8f9fa" stroke="#dee2e6" stroke-width="1" rx="4"/>
  
  <!-- Table Headers -->
  <rect x="340" y="650" width="840" height="25" fill="#e9ecef" stroke="#dee2e6" stroke-width="1"/>
  <text x="360" y="667" font-family="Arial, sans-serif" font-size="12" font-weight="bold" fill="#495057">Case No.</text>
  <text x="460" y="667" font-family="Arial, sans-serif" font-size="12" font-weight="bold" fill="#495057">Dimensions (L×W×H)</text>
  <text x="600" y="667" font-family="Arial, sans-serif" font-size="12" font-weight="bold" fill="#495057">Weight</text>
  <text x="680" y="667" font-family="Arial, sans-serif" font-size="12" font-weight="bold" fill="#495057">Material</text>
  <text x="760" y="667" font-family="Arial, sans-serif" font-size="12" font-weight="bold" fill="#495057">Position (X,Y)</text>
  <text x="880" y="667" font-family="Arial, sans-serif" font-size="12" font-weight="bold" fill="#495057">Status</text>
  <text x="960" y="667" font-family="Arial, sans-serif" font-size="12" font-weight="bold" fill="#495057">Actions</text>
  
  <!-- Table Rows -->
  <rect x="340" y="675" width="840" height="25" fill="#ffffff" stroke="#dee2e6" stroke-width="1"/>
  <text x="360" y="692" font-family="Arial, sans-serif" font-size="11" fill="#495057">CASE_001</text>
  <text x="460" y="692" font-family="Arial, sans-serif" font-size="11" fill="#495057">2.4m × 1.2m × 1.8m</text>
  <text x="600" y="692" font-family="Arial, sans-serif" font-size="11" fill="#495057">1,200 kg</text>
  <text x="680" y="692" font-family="Arial, sans-serif" font-size="11" fill="#495057">Wood</text>
  <text x="760" y="692" font-family="Arial, sans-serif" font-size="11" fill="#495057">(0, 0)</text>
  <text x="880" y="692" font-family="Arial, sans-serif" font-size="11" fill="#28a745">✓ Placed</text>
  <rect x="960" y="680" width="40" height="15" fill="#007bff" stroke="none" rx="3"/>
  <text x="980" y="690" font-family="Arial, sans-serif" font-size="9" fill="#ffffff" text-anchor="middle">Edit</text>
  
  <rect x="340" y="700" width="840" height="25" fill="#ffffff" stroke="#dee2e6" stroke-width="1"/>
  <text x="360" y="717" font-family="Arial, sans-serif" font-size="11" fill="#495057">CASE_002</text>
  <text x="460" y="717" font-family="Arial, sans-serif" font-size="11" fill="#495057">2.8m × 1.5m × 2.0m</text>
  <text x="600" y="717" font-family="Arial, sans-serif" font-size="11" fill="#495057">2,500 kg</text>
  <text x="680" y="717" font-family="Arial, sans-serif" font-size="11" fill="#495057">Steel</text>
  <text x="760" y="717" font-family="Arial, sans-serif" font-size="11" fill="#495057">(2.9, 0)</text>
  <text x="880" y="717" font-family="Arial, sans-serif" font-size="11" fill="#28a745">✓ Placed</text>
  <rect x="960" y="705" width="40" height="15" fill="#007bff" stroke="none" rx="3"/>
  <text x="980" y="715" font-family="Arial, sans-serif" font-size="9" fill="#ffffff" text-anchor="middle">Edit</text>
  
  <rect x="340" y="725" width="840" height="25" fill="#ffffff" stroke="#dee2e6" stroke-width="1"/>
  <text x="360" y="742" font-family="Arial, sans-serif" font-size="11" fill="#495057">CASE_003</text>
  <text x="460" y="742" font-family="Arial, sans-serif" font-size="11" fill="#495057">1.8m × 1.0m × 1.5m</text>
  <text x="600" y="742" font-family="Arial, sans-serif" font-size="11" fill="#495057">800 kg</text>
  <text x="680" y="742" font-family="Arial, sans-serif" font-size="11" fill="#495057">Plastic</text>
  <text x="760" y="742" font-family="Arial, sans-serif" font-size="11" fill="#495057">(5.8, 0)</text>
  <text x="880" y="742" font-family="Arial, sans-serif" font-size="11" fill="#28a745">✓ Placed</text>
  <rect x="960" y="730" width="40" height="15" fill="#007bff" stroke="none" rx="3"/>
  <text x="980" y="740" font-family="Arial, sans-serif" font-size="9" fill="#ffffff" text-anchor="middle">Edit</text>
  
  <rect x="340" y="750" width="840" height="25" fill="#ffffff" stroke="#dee2e6" stroke-width="1"/>
  <text x="360" y="767" font-family="Arial, sans-serif" font-size="11" fill="#495057">CASE_004</text>
  <text x="460" y="767" font-family="Arial, sans-serif" font-size="11" fill="#495057">3.2m × 1.8m × 2.2m</text>
  <text x="600" y="767" font-family="Arial, sans-serif" font-size="11" fill="#495057">3,200 kg</text>
  <text x="680" y="767" font-family="Arial, sans-serif" font-size="11" fill="#495057">Steel</text>
  <text x="760" y="767" font-family="Arial, sans-serif" font-size="11" fill="#495057">(8.7, 0)</text>
  <text x="880" y="767" font-family="Arial, sans-serif" font-size="11" fill="#dc3545">✗ Excluded</text>
  <rect x="960" y="755" width="40" height="15" fill="#6c757d" stroke="none" rx="3"/>
  <text x="980" y="765" font-family="Arial, sans-serif" font-size="9" fill="#ffffff" text-anchor="middle">View</text>
  
  <!-- Footer -->
  <rect x="0" y="780" width="1200" height="20" fill="#f8f9fa" stroke="#e9ecef" stroke-width="1"/>
  <text x="20" y="795" font-family="Arial, sans-serif" font-size="10" fill="#6c757d">MACHO-GPT v3.4-mini | HVDC PROJECT | Generated: 2025-01-09 15:30:00</text>
  <text x="1000" y="795" font-family="Arial, sans-serif" font-size="10" fill="#6c757d" text-anchor="end">Status: Ready | Mode: LATTICE | Confidence: 95%</text>
  
  <!-- Legend -->
  <rect x="900" y="100" width="280" height="120" fill="#ffffff" stroke="#dee2e6" stroke-width="1" rx="6"/>
  <text x="920" y="120" font-family="Arial, sans-serif" font-size="14" font-weight="bold" fill="#495057">🎨 Legend</text>
  
  <rect x="920" y="130" width="15" height="15" fill="none" stroke="#2196f3" stroke-width="2"/>
  <text x="945" y="142" font-family="Arial, sans-serif" font-size="11" fill="#495057">Plastic (≤1000kg)</text>
  
  <rect x="920" y="150" width="15" height="15" fill="none" stroke="#8d6e63" stroke-width="2"/>
  <text x="945" y="162" font-family="Arial, sans-serif" font-size="11" fill="#495057">Wood (1001-2000kg)</text>
  
  <rect x="920" y="170" width="15" height="15" fill="none" stroke="#9e9e9e" stroke-width="2"/>
  <text x="945" y="182" font-family="Arial, sans-serif" font-size="11" fill="#495057">Steel (>2000kg)</text>
  
  <rect x="920" y="190" width="15" height="15" fill="#fff3cd" stroke="#ffc107" stroke-width="2"/>
  <text x="945" y="202" font-family="Arial, sans-serif" font-size="11" fill="#495057">Aisle (3m width)</text>
  
  <rect x="920" y="210" width="15" height="15" fill="#f8d7da" stroke="#dc3545" stroke-width="2"/>
  <text x="945" y="222" font-family="Arial, sans-serif" font-size="11" fill="#495057">Excluded Items</text>
</svg> 